<svg xmlns="http://www.w3.org/2000/svg" width="201" height="201" fill="none">
  <path fill="#fff" d="M193 99.5c0 47.773-41.638 86.5-93 86.5S7 147.273 7 99.5 48.638 13 100 13s93 38.727 93 86.5Z"/>
  <path fill="#006EF2" d="M192.116 43.424c-5.071-16.884-18.147-29.96-35.031-35.03C138.472 2.816 119.334 0 100.255 0c-19.08 0-38.276 2.817-56.83 8.393C26.52 13.464 13.405 26.54 8.334 43.424c-11.113 37.188-11.113 76.493 0 113.681 5.071 16.884 18.186 29.96 35.07 35.031 37.187 11.152 76.493 11.152 113.68 0 16.884-5.071 29.96-18.147 35.031-35.031 11.172-37.188 11.172-76.493 0-113.68ZM87.354 115.837l-37.887 49.855-16.981-12.939 37.848-49.798c2.292-3.011 3.245-6.703 2.623-10.414a13.495 13.495 0 0 0-5.77-9.054l-32.273-22.09L46.96 43.754l32.272 22.09C87.257 71.286 92.464 79.583 94 89.103c1.554 9.56-.797 19.041-6.665 26.735m-3.303-72.51c0-8.957 7.267-16.223 16.224-16.223s16.184 7.266 16.184 16.223c0 8.957-7.266 16.185-16.184 16.185-8.918 0-16.224-7.267-16.224-16.185Zm66.954 122.365-37.849-49.855c-5.867-7.694-8.257-17.156-6.703-26.735 1.555-9.52 6.801-17.816 14.767-23.256l32.271-22.091 12.047 17.641-32.272 22.091c-3.09 2.118-5.169 5.343-5.713 9.054-.602 3.711.292 7.403 2.585 10.414l37.887 49.798-17.02 12.939Z"/>
</svg>
